<svg width="20" height="21" viewBox="0 0 20 21" fill="none" xmlns="http://www.w3.org/2000/svg">
<path d="M11.6523 16.7168C11.3857 16.7168 11.1738 16.6211 10.9893 16.4434L5.74609 11.3232C5.51367 11.0908 5.4043 10.8516 5.39746 10.5576C5.39746 10.2637 5.50684 10.0176 5.74609 9.79199L10.9893 4.66504C11.1738 4.4873 11.3926 4.3916 11.6523 4.3916C12.1855 4.3916 12.6094 4.81543 12.6094 5.3418C12.6094 5.60156 12.5 5.84766 12.3086 6.03906L7.66016 10.5576L12.3086 15.0693C12.5 15.2607 12.6094 15.5068 12.6094 15.7666C12.6094 16.293 12.1855 16.7168 11.6523 16.7168Z" fill="black" fill-opacity="0.87"/>
</svg>
